# xmcd
# Copyright (C) 1995-1998 Ti Kan
#
# Track frame offsets:
#       150
#       15190
#       30086
#       43046
#       58462
#       72784
#       90696
#       106566
#       121486
#       134956
#       151300
#       169249
#
# Disc length: 2466 seconds
#
# Revision: 0
# Processed by: cddbd v1.5.2PL0 Copyright (c) Steve Scherf et al.
# Submitted via: CD-Import v1.0
#
DISCID=9809a00c
DTITLE=Elderberries - Ignorance and Bliss
DYEAR=2008
DGENRE=
TTITLE0=Au Bikini
TTITLE1=Lost My Way
TTITLE2=It Doesn't Really Matter
TTITLE3=Visions
TTITLE4=False Acquaintance
TTITLE5=The Choice
TTITLE6=Gone Too Far
TTITLE7=Ungracious
TTITLE8=Impostor
TTITLE9=We Should Be Running
TTITLE10=Far Away
TTITLE11=Sick Of Silence
EXTD=
EXTT0=
EXTT1=
EXTT2=
EXTT3=
EXTT4=
EXTT5=
EXTT6=
EXTT7=
EXTT8=
EXTT9=
EXTT10=
EXTT11=
PLAYORDER=
